<svg xmlns="http://www.w3.org/2000/svg" width="96" height="96" viewBox="0 0 96 96" fill="none">
<rect width="96" height="96" rx="20" fill="#0B1B2B"/>
<path d="M21.3351 63.5C20.0871 63.5 19.1271 63.164 18.4551 62.492C17.7831 61.82 17.4471 60.86 17.4471 59.612V33.548C17.4471 32.3 17.7831 31.34 18.4551 30.668C19.1271 29.996 20.0871 29.66 21.3351 29.66H30.6951C36.4871 29.66 40.9511 31.132 44.0871 34.076C47.2551 36.988 48.8391 41.148 48.8391 46.556C48.8391 49.276 48.4231 51.692 47.5911 53.804C46.7911 55.884 45.6231 57.644 44.0871 59.084C42.5511 60.524 40.6631 61.628 38.4231 62.396C36.1831 63.132 33.6071 63.5 30.6951 63.5H21.3351ZM24.8871 57.404H30.2631C32.0871 57.404 33.6711 57.18 35.0151 56.732C36.3591 56.284 37.4791 55.612 38.3751 54.716C39.2711 53.82 39.9431 52.7 40.3911 51.356C40.8391 49.98 41.0631 48.38 41.0631 46.556C41.0631 42.908 40.1511 40.204 38.3271 38.444C36.5351 36.652 33.8471 35.756 30.2631 35.756H24.8871V57.404ZM66.7149 64.028C65.3709 64.028 63.9949 63.916 62.5869 63.692C61.2109 63.5 59.8829 63.212 58.6029 62.828C57.3549 62.444 56.2349 61.964 55.2429 61.388C54.5389 61.004 54.0429 60.508 53.7549 59.9C53.4669 59.26 53.3549 58.62 53.4189 57.98C53.5149 57.34 53.7549 56.78 54.1389 56.3C54.5549 55.788 55.0669 55.468 55.6749 55.34C56.3149 55.18 57.0189 55.292 57.7869 55.676C59.0989 56.412 60.5229 56.956 62.0589 57.308C63.6269 57.66 65.1789 57.836 66.7149 57.836C69.0509 57.836 70.7149 57.484 71.7069 56.78C72.6989 56.044 73.1949 55.132 73.1949 54.044C73.1949 53.116 72.8429 52.38 72.1389 51.836C71.4349 51.292 70.2029 50.828 68.4429 50.444L63.0189 49.292C59.9469 48.652 57.6589 47.564 56.1549 46.028C54.6829 44.46 53.9469 42.412 53.9469 39.884C53.9469 38.284 54.2829 36.828 54.9549 35.516C55.6269 34.204 56.5709 33.068 57.7869 32.108C59.0029 31.148 60.4429 30.412 62.1069 29.9C63.8029 29.388 65.6589 29.132 67.6749 29.132C69.4669 29.132 71.2269 29.356 72.9549 29.804C74.6829 30.22 76.2029 30.844 77.5149 31.676C78.1549 32.06 78.5869 32.556 78.8109 33.164C79.0669 33.74 79.1469 34.332 79.0509 34.94C78.9869 35.516 78.7469 36.028 78.3309 36.476C77.9469 36.924 77.4509 37.212 76.8429 37.34C76.2349 37.468 75.4989 37.324 74.6349 36.908C73.5789 36.364 72.4589 35.964 71.2749 35.708C70.0909 35.452 68.8749 35.324 67.6269 35.324C66.2829 35.324 65.1309 35.5 64.1709 35.852C63.2429 36.204 62.5229 36.7 62.0109 37.34C61.5309 37.98 61.2909 38.716 61.2909 39.548C61.2909 40.476 61.6269 41.228 62.2989 41.804C62.9709 42.38 64.1389 42.844 65.8029 43.196L71.2269 44.348C74.3629 45.02 76.6989 46.108 78.2349 47.612C79.7709 49.084 80.5389 51.036 80.5389 53.468C80.5389 55.068 80.2189 56.524 79.5789 57.836C78.9389 59.116 78.0109 60.22 76.7949 61.148C75.5789 62.076 74.1229 62.796 72.4269 63.308C70.7309 63.788 68.8269 64.028 66.7149 64.028Z" fill="#DEDEDE"/>
</svg>